<svg xmlns="http://www.w3.org/2000/svg" xmlns:xlink="http://www.w3.org/1999/xlink" width="200" zoomAndPan="magnify" viewBox="0 0 150 30.000001" height="40" preserveAspectRatio="xMidYMid meet" version="1.0"><defs><g/></defs><g fill="#ffffff" fill-opacity="1"><g transform="translate(3.79158, 19.233873)"><g><path d="M 5.382812 0 C 11.640625 0 13.441406 -4.421875 13.441406 -8.570312 C 13.441406 -12.71875 11.640625 -17.144531 5.382812 -17.144531 L 1.199219 -17.144531 L 1.199219 0 Z M 4.851562 -16.886719 C 10.0625 -16.886719 10.953125 -11.964844 10.953125 -8.570312 C 10.953125 -5.175781 10.0625 -0.257812 4.851562 -0.257812 L 3.6875 -0.257812 L 3.6875 -16.886719 Z M 4.851562 -16.886719 "/></g></g></g><g fill="#ffffff" fill-opacity="1"><g transform="translate(17.911526, 19.233873)"><g><path d="M 0.6875 -5.761719 C 0.6875 -1.386719 4.492188 0.171875 8.625 0.171875 C 9.789062 0.171875 10.664062 0 11.570312 -0.429688 L 12.601562 -3.410156 C 11.433594 -2.433594 9.996094 -2.3125 8.554688 -2.3125 C 4.714844 -2.3125 0.996094 -3.101562 0.996094 -5.625 C 0.996094 -6.515625 1.664062 -7.046875 3.207031 -7.046875 C 5.453125 -7.046875 7.183594 -5.398438 9.71875 -5.484375 C 10.921875 -5.519531 12 -6.324219 12 -7.613281 C 12 -11.023438 3.035156 -9.839844 3.035156 -13.097656 C 3.035156 -14.296875 4.097656 -14.898438 6.601562 -14.898438 C 8.792969 -14.898438 11.074219 -14.316406 12.070312 -13.59375 L 12.773438 -16.167969 C 11.710938 -17.023438 8.761719 -17.316406 6.996094 -17.316406 C 2.058594 -17.316406 1.097656 -14.984375 1.097656 -13.9375 C 1.097656 -11.402344 3.566406 -10.9375 5.984375 -10.355469 C 7.816406 -9.910156 10.75 -9.378906 10.75 -8.367188 C 10.75 -7.972656 10.390625 -7.816406 9.996094 -7.816406 C 8.398438 -7.816406 7.097656 -9.015625 4.816406 -9.015625 C 2.484375 -9.015625 0.6875 -7.9375 0.6875 -5.761719 Z M 0.6875 -5.761719 "/></g></g></g><g fill="#ffffff" fill-opacity="1"><g transform="translate(31.054729, 19.233873)"><g><path d="M 0.34375 -17.144531 C 2.125 -11.296875 3.15625 -7.835938 4.902344 -2.125 C 5.261719 -0.941406 5.949219 0.171875 7.199219 0.171875 C 8.453125 0.171875 9.136719 -0.941406 9.496094 -2.125 C 11.230469 -7.835938 12.292969 -11.296875 14.058594 -17.144531 L 11.433594 -17.144531 C 9.667969 -11.296875 8.675781 -7.816406 6.875 -2.125 C 6.71875 -1.644531 6.496094 -1.492188 6.121094 -1.492188 C 3.855469 -1.492188 3.601562 -15.136719 4.082031 -17.144531 Z M 0.34375 -17.144531 "/></g></g></g><g fill="#ffffff" fill-opacity="1"><g transform="translate(45.448846, 19.233873)"><g><path d="M 1.199219 0 L 3.6875 0 L 3.6875 -17.144531 L 1.199219 -17.144531 Z M 1.199219 0 "/></g></g></g><g fill="#ffffff" fill-opacity="1"><g transform="translate(50.332567, 19.233873)"><g><path d="M 1.199219 0 L 4.765625 0 C 2.589844 -3.910156 1.507812 -8.433594 1.507812 -14.984375 C 1.507812 -14.984375 1.9375 -15.292969 2.898438 -13.457031 C 3.394531 -12.496094 4.371094 -10.457031 6.015625 -7.320312 C 8.125 -3.308594 10.40625 0.171875 12.515625 0.171875 C 12.753906 0.171875 13.097656 0.101562 13.285156 0 L 13.285156 -17.144531 L 9.71875 -17.144531 C 11.898438 -13.234375 12.976562 -8.707031 12.976562 -2.296875 C 12.976562 -2.296875 12.667969 -1.9375 11.742188 -2.929688 C 11.007812 -3.738281 9.875 -5.398438 8.160156 -8.570312 C 4.9375 -14.539062 4.527344 -17.316406 1.972656 -17.316406 C 1.730469 -17.316406 1.386719 -17.246094 1.199219 -17.144531 Z M 1.199219 0 "/></g></g></g><g fill="#ffffff" fill-opacity="1"><g transform="translate(64.81236, 19.233873)"><g/></g></g><g fill="#ffffff" fill-opacity="1"><g transform="translate(71.666699, 19.233873)"><g><path d="M 8.023438 0.171875 C 10.714844 0.171875 11.761719 -0.324219 12.839844 -1.285156 L 12.839844 -9.207031 L 10.320312 -9.207031 L 10.320312 -0.6875 C 10.320312 -0.34375 9.667969 -0.152344 9.242188 -0.152344 C 6.34375 -0.152344 2.726562 -5.984375 2.726562 -10.972656 C 2.726562 -14.261719 3.394531 -16.253906 5.742188 -16.253906 C 7.679688 -16.253906 9.632812 -15.171875 10.988281 -13.578125 L 12.667969 -15.582031 C 12.035156 -16.5625 10.199219 -17.316406 8.433594 -17.316406 C 3.566406 -17.316406 0.6875 -13.765625 0.6875 -8.847656 C 0.6875 -4.097656 3.121094 0.171875 8.023438 0.171875 Z M 8.023438 0.171875 "/></g></g></g><g fill="#ffffff" fill-opacity="1"><g transform="translate(85.700968, 19.233873)"><g><path d="M 4.082031 0 C 3.890625 -0.789062 3.773438 -3.378906 3.855469 -6.222656 L 9.582031 -6.222656 C 10.132812 -4.335938 10.714844 -2.367188 11.433594 0 L 14.058594 0 C 12.292969 -5.847656 11.230469 -9.308594 9.496094 -15.019531 C 9.136719 -16.199219 8.453125 -17.316406 7.199219 -17.316406 C 5.949219 -17.316406 5.261719 -16.199219 4.902344 -15.019531 C 3.171875 -9.308594 2.125 -5.847656 0.34375 0 Z M 3.875 -6.480469 C 4.027344 -10.816406 4.644531 -15.652344 6.1875 -15.652344 C 6.566406 -15.652344 6.753906 -15.394531 6.875 -15.019531 C 7.921875 -11.726562 8.691406 -9.171875 9.496094 -6.480469 Z M 3.875 -6.480469 "/></g></g></g><g fill="#ffffff" fill-opacity="1"><g transform="translate(100.095085, 19.233873)"><g><path d="M 3.6875 0 L 3.6875 -16.886719 L 7.355469 -16.886719 C 9.378906 -16.886719 10.183594 -15.652344 10.183594 -14.039062 C 10.183594 -9.550781 5.007812 -9.34375 5.007812 -7.679688 C 5.007812 -6.582031 7.199219 -3.1875 8.640625 -1.304688 C 9.53125 -0.136719 9.582031 0 10.59375 0 L 13.421875 0 L 13.421875 -0.101562 C 12.1875 -0.101562 6.996094 -7.664062 6.996094 -8.847656 C 6.996094 -9.890625 12.667969 -10.0625 12.667969 -14.195312 C 12.667969 -15.601562 11.761719 -17.144531 9.890625 -17.144531 L 1.199219 -17.144531 L 1.199219 0 Z M 3.6875 0 "/></g></g></g><g fill="#ffffff" fill-opacity="1"><g transform="translate(113.512459, 19.233873)"><g><path d="M 7.902344 0.171875 C 11.484375 0.171875 13.167969 -1.902344 13.167969 -1.902344 L 11.792969 -4.097656 C 11.792969 -4.097656 10.953125 -2.367188 8.058594 -2.367188 C 4.148438 -2.367188 2.039062 -6.1875 2.039062 -10.542969 C 2.039062 -13.816406 3.394531 -16.148438 5.742188 -16.148438 C 7.679688 -16.148438 9.632812 -15.085938 10.988281 -13.492188 L 12.667969 -15.496094 C 12.035156 -16.457031 10.269531 -17.316406 8.503906 -17.316406 C 3.632812 -17.316406 0.6875 -13.679688 0.6875 -8.792969 C 0.6875 -4.082031 3.136719 0.171875 7.902344 0.171875 Z M 7.902344 0.171875 "/></g></g></g><g fill="#ffffff" fill-opacity="1"><g transform="translate(126.929833, 19.233873)"><g><path d="M 1.199219 0 L 3.6875 0 L 3.6875 -17.144531 L 1.199219 -17.144531 Z M 1.199219 0 "/></g></g></g><g fill="#ffffff" fill-opacity="1"><g transform="translate(131.813555, 19.233873)"><g><path d="M 4.082031 0 C 3.890625 -0.789062 3.773438 -3.378906 3.855469 -6.222656 L 9.582031 -6.222656 C 10.132812 -4.335938 10.714844 -2.367188 11.433594 0 L 14.058594 0 C 12.292969 -5.847656 11.230469 -9.308594 9.496094 -15.019531 C 9.136719 -16.199219 8.453125 -17.316406 7.199219 -17.316406 C 5.949219 -17.316406 5.261719 -16.199219 4.902344 -15.019531 C 3.171875 -9.308594 2.125 -5.847656 0.34375 0 Z M 3.875 -6.480469 C 4.027344 -10.816406 4.644531 -15.652344 6.1875 -15.652344 C 6.566406 -15.652344 6.753906 -15.394531 6.875 -15.019531 C 7.921875 -11.726562 8.691406 -9.171875 9.496094 -6.480469 Z M 3.875 -6.480469 "/></g></g></g><g fill="#ffffff" fill-opacity="1"><g transform="translate(42.569163, 27.156082)"><g><path d="M 0.84375 -2.515625 L 0.84375 -1.515625 L 2.28125 -1.515625 L 2.28125 -1.15625 L 0.84375 -1.15625 L 0.84375 0 L 0.4375 0 L 0.4375 -2.875 L 2.46875 -2.875 L 2.46875 -2.515625 Z M 0.84375 -2.515625 "/></g></g></g><g fill="#ffffff" fill-opacity="1"><g transform="translate(45.177891, 27.156082)"><g><path d="M 1.625 0.03125 C 1.238281 0.03125 0.9375 -0.078125 0.71875 -0.296875 C 0.507812 -0.515625 0.40625 -0.828125 0.40625 -1.234375 L 0.40625 -2.875 L 0.8125 -2.875 L 0.8125 -1.25 C 0.8125 -0.632812 1.082031 -0.328125 1.625 -0.328125 C 1.882812 -0.328125 2.082031 -0.398438 2.21875 -0.546875 C 2.363281 -0.703125 2.4375 -0.9375 2.4375 -1.25 L 2.4375 -2.875 L 2.84375 -2.875 L 2.84375 -1.234375 C 2.84375 -0.828125 2.734375 -0.515625 2.515625 -0.296875 C 2.304688 -0.078125 2.007812 0.03125 1.625 0.03125 Z M 1.625 0.03125 "/></g></g></g><g fill="#ffffff" fill-opacity="1"><g transform="translate(48.427503, 27.156082)"><g><path d="M 0.4375 -2.875 L 0.84375 -2.875 L 0.84375 -0.359375 L 2.40625 -0.359375 L 2.40625 0 L 0.4375 0 Z M 0.4375 -2.875 "/></g></g></g><g fill="#ffffff" fill-opacity="1"><g transform="translate(50.867793, 27.156082)"><g><path d="M 0.4375 -2.875 L 0.84375 -2.875 L 0.84375 -0.359375 L 2.40625 -0.359375 L 2.40625 0 L 0.4375 0 Z M 0.4375 -2.875 "/></g></g></g><g fill="#ffffff" fill-opacity="1"><g transform="translate(53.308084, 27.156082)"><g/></g></g><g fill="#ffffff" fill-opacity="1"><g transform="translate(54.4132, 27.156082)"><g><path d="M 1.265625 0.03125 C 1.046875 0.03125 0.835938 0 0.640625 -0.0625 C 0.441406 -0.132812 0.285156 -0.222656 0.171875 -0.328125 L 0.328125 -0.65625 C 0.429688 -0.550781 0.566406 -0.46875 0.734375 -0.40625 C 0.910156 -0.34375 1.085938 -0.3125 1.265625 -0.3125 C 1.503906 -0.3125 1.679688 -0.351562 1.796875 -0.4375 C 1.921875 -0.519531 1.984375 -0.628906 1.984375 -0.765625 C 1.984375 -0.859375 1.945312 -0.9375 1.875 -1 C 1.8125 -1.0625 1.734375 -1.109375 1.640625 -1.140625 C 1.546875 -1.171875 1.414062 -1.207031 1.25 -1.25 C 1.03125 -1.300781 0.851562 -1.351562 0.71875 -1.40625 C 0.582031 -1.457031 0.46875 -1.535156 0.375 -1.640625 C 0.28125 -1.753906 0.234375 -1.90625 0.234375 -2.09375 C 0.234375 -2.238281 0.273438 -2.375 0.359375 -2.5 C 0.441406 -2.625 0.5625 -2.722656 0.71875 -2.796875 C 0.882812 -2.867188 1.09375 -2.90625 1.34375 -2.90625 C 1.507812 -2.90625 1.675781 -2.882812 1.84375 -2.84375 C 2.007812 -2.800781 2.148438 -2.738281 2.265625 -2.65625 L 2.125 -2.328125 C 2.007812 -2.398438 1.878906 -2.457031 1.734375 -2.5 C 1.597656 -2.539062 1.46875 -2.5625 1.34375 -2.5625 C 1.101562 -2.5625 0.925781 -2.519531 0.8125 -2.4375 C 0.695312 -2.351562 0.640625 -2.242188 0.640625 -2.109375 C 0.640625 -2.003906 0.671875 -1.921875 0.734375 -1.859375 C 0.804688 -1.796875 0.890625 -1.75 0.984375 -1.71875 C 1.078125 -1.6875 1.207031 -1.648438 1.375 -1.609375 C 1.59375 -1.554688 1.765625 -1.503906 1.890625 -1.453125 C 2.023438 -1.398438 2.140625 -1.320312 2.234375 -1.21875 C 2.335938 -1.113281 2.390625 -0.96875 2.390625 -0.78125 C 2.390625 -0.632812 2.347656 -0.5 2.265625 -0.375 C 2.179688 -0.25 2.054688 -0.148438 1.890625 -0.078125 C 1.722656 -0.00390625 1.515625 0.03125 1.265625 0.03125 Z M 1.265625 0.03125 "/></g></g></g><g fill="#ffffff" fill-opacity="1"><g transform="translate(56.964414, 27.156082)"><g><path d="M 1 -2.515625 L 0.015625 -2.515625 L 0.015625 -2.875 L 2.390625 -2.875 L 2.390625 -2.515625 L 1.40625 -2.515625 L 1.40625 0 L 1 0 Z M 1 -2.515625 "/></g></g></g><g fill="#ffffff" fill-opacity="1"><g transform="translate(59.375947, 27.156082)"><g><path d="M 2.265625 -0.71875 L 0.734375 -0.71875 L 0.421875 0 L 0 0 L 1.296875 -2.875 L 1.703125 -2.875 L 3.015625 0 L 2.578125 0 Z M 2.125 -1.046875 L 1.5 -2.453125 L 0.875 -1.046875 Z M 2.125 -1.046875 "/></g></g></g><g fill="#ffffff" fill-opacity="1"><g transform="translate(62.383172, 27.156082)"><g><path d="M 1.71875 0.03125 C 1.425781 0.03125 1.164062 -0.03125 0.9375 -0.15625 C 0.707031 -0.28125 0.523438 -0.453125 0.390625 -0.671875 C 0.265625 -0.898438 0.203125 -1.15625 0.203125 -1.4375 C 0.203125 -1.71875 0.265625 -1.96875 0.390625 -2.1875 C 0.523438 -2.414062 0.707031 -2.59375 0.9375 -2.71875 C 1.175781 -2.84375 1.4375 -2.90625 1.71875 -2.90625 C 1.945312 -2.90625 2.15625 -2.867188 2.34375 -2.796875 C 2.53125 -2.722656 2.6875 -2.613281 2.8125 -2.46875 L 2.546875 -2.203125 C 2.328125 -2.429688 2.054688 -2.546875 1.734375 -2.546875 C 1.523438 -2.546875 1.332031 -2.492188 1.15625 -2.390625 C 0.988281 -2.296875 0.851562 -2.164062 0.75 -2 C 0.65625 -1.832031 0.609375 -1.644531 0.609375 -1.4375 C 0.609375 -1.226562 0.65625 -1.039062 0.75 -0.875 C 0.851562 -0.707031 0.988281 -0.570312 1.15625 -0.46875 C 1.332031 -0.375 1.523438 -0.328125 1.734375 -0.328125 C 2.054688 -0.328125 2.328125 -0.441406 2.546875 -0.671875 L 2.8125 -0.421875 C 2.6875 -0.273438 2.53125 -0.160156 2.34375 -0.078125 C 2.15625 -0.00390625 1.945312 0.03125 1.71875 0.03125 Z M 1.71875 0.03125 "/></g></g></g><g fill="#ffffff" fill-opacity="1"><g transform="translate(65.353422, 27.156082)"><g><path d="M 1.375 -1.28125 L 0.84375 -0.75 L 0.84375 0 L 0.4375 0 L 0.4375 -2.875 L 0.84375 -2.875 L 0.84375 -1.265625 L 2.40625 -2.875 L 2.875 -2.875 L 1.640625 -1.578125 L 2.953125 0 L 2.46875 0 Z M 1.375 -1.28125 "/></g></g></g><g fill="#ffffff" fill-opacity="1"><g transform="translate(68.307243, 27.156082)"><g/></g></g><g fill="#ffffff" fill-opacity="1"><g transform="translate(69.412359, 27.156082)"><g><path d="M 4.5 -2.875 L 3.53125 0 L 3.109375 0 L 2.3125 -2.296875 L 1.53125 0 L 1.09375 0 L 0.125 -2.875 L 0.5625 -2.875 L 1.328125 -0.53125 L 2.140625 -2.875 L 2.515625 -2.875 L 3.3125 -0.53125 L 4.109375 -2.875 Z M 4.5 -2.875 "/></g></g></g><g fill="#ffffff" fill-opacity="1"><g transform="translate(74.038231, 27.156082)"><g><path d="M 2.515625 -0.359375 L 2.515625 0 L 0.4375 0 L 0.4375 -2.875 L 2.46875 -2.875 L 2.46875 -2.515625 L 0.84375 -2.515625 L 0.84375 -1.640625 L 2.28125 -1.640625 L 2.28125 -1.28125 L 0.84375 -1.28125 L 0.84375 -0.359375 Z M 2.515625 -0.359375 "/></g></g></g><g fill="#ffffff" fill-opacity="1"><g transform="translate(76.790746, 27.156082)"><g><path d="M 2.359375 -1.484375 C 2.535156 -1.441406 2.671875 -1.359375 2.765625 -1.234375 C 2.859375 -1.117188 2.90625 -0.96875 2.90625 -0.78125 C 2.90625 -0.53125 2.8125 -0.335938 2.625 -0.203125 C 2.4375 -0.0664062 2.160156 0 1.796875 0 L 0.4375 0 L 0.4375 -2.875 L 1.71875 -2.875 C 2.050781 -2.875 2.304688 -2.804688 2.484375 -2.671875 C 2.660156 -2.546875 2.75 -2.363281 2.75 -2.125 C 2.75 -1.976562 2.710938 -1.847656 2.640625 -1.734375 C 2.578125 -1.628906 2.484375 -1.546875 2.359375 -1.484375 Z M 0.84375 -2.546875 L 0.84375 -1.625 L 1.6875 -1.625 C 1.894531 -1.625 2.054688 -1.660156 2.171875 -1.734375 C 2.285156 -1.816406 2.34375 -1.929688 2.34375 -2.078125 C 2.34375 -2.234375 2.285156 -2.347656 2.171875 -2.421875 C 2.054688 -2.503906 1.894531 -2.546875 1.6875 -2.546875 Z M 1.78125 -0.328125 C 2.019531 -0.328125 2.195312 -0.363281 2.3125 -0.4375 C 2.425781 -0.519531 2.484375 -0.644531 2.484375 -0.8125 C 2.484375 -1.132812 2.25 -1.296875 1.78125 -1.296875 L 0.84375 -1.296875 L 0.84375 -0.328125 Z M 1.78125 -0.328125 "/></g></g></g><g fill="#ffffff" fill-opacity="1"><g transform="translate(79.900676, 27.156082)"><g/></g></g><g fill="#ffffff" fill-opacity="1"><g transform="translate(81.005793, 27.156082)"><g><path d="M 0.4375 -2.875 L 1.640625 -2.875 C 1.941406 -2.875 2.210938 -2.8125 2.453125 -2.6875 C 2.691406 -2.570312 2.875 -2.40625 3 -2.1875 C 3.132812 -1.96875 3.203125 -1.71875 3.203125 -1.4375 C 3.203125 -1.15625 3.132812 -0.90625 3 -0.6875 C 2.875 -0.46875 2.691406 -0.296875 2.453125 -0.171875 C 2.210938 -0.0546875 1.941406 0 1.640625 0 L 0.4375 0 Z M 1.625 -0.359375 C 1.851562 -0.359375 2.054688 -0.398438 2.234375 -0.484375 C 2.410156 -0.578125 2.546875 -0.707031 2.640625 -0.875 C 2.734375 -1.039062 2.78125 -1.226562 2.78125 -1.4375 C 2.78125 -1.65625 2.734375 -1.84375 2.640625 -2 C 2.546875 -2.164062 2.410156 -2.289062 2.234375 -2.375 C 2.054688 -2.46875 1.851562 -2.515625 1.625 -2.515625 L 0.84375 -2.515625 L 0.84375 -0.359375 Z M 1.625 -0.359375 "/></g></g></g><g fill="#ffffff" fill-opacity="1"><g transform="translate(84.39919, 27.156082)"><g><path d="M 2.515625 -0.359375 L 2.515625 0 L 0.4375 0 L 0.4375 -2.875 L 2.46875 -2.875 L 2.46875 -2.515625 L 0.84375 -2.515625 L 0.84375 -1.640625 L 2.28125 -1.640625 L 2.28125 -1.28125 L 0.84375 -1.28125 L 0.84375 -0.359375 Z M 2.515625 -0.359375 "/></g></g></g><g fill="#ffffff" fill-opacity="1"><g transform="translate(87.151705, 27.156082)"><g><path d="M 2.9375 -2.875 L 1.671875 0 L 1.265625 0 L 0 -2.875 L 0.4375 -2.875 L 1.46875 -0.515625 L 2.515625 -2.875 Z M 2.9375 -2.875 "/></g></g></g><g fill="#ffffff" fill-opacity="1"><g transform="translate(90.076769, 27.156082)"><g><path d="M 2.515625 -0.359375 L 2.515625 0 L 0.4375 0 L 0.4375 -2.875 L 2.46875 -2.875 L 2.46875 -2.515625 L 0.84375 -2.515625 L 0.84375 -1.640625 L 2.28125 -1.640625 L 2.28125 -1.28125 L 0.84375 -1.28125 L 0.84375 -0.359375 Z M 2.515625 -0.359375 "/></g></g></g><g fill="#ffffff" fill-opacity="1"><g transform="translate(92.829284, 27.156082)"><g><path d="M 0.4375 -2.875 L 0.84375 -2.875 L 0.84375 -0.359375 L 2.40625 -0.359375 L 2.40625 0 L 0.4375 0 Z M 0.4375 -2.875 "/></g></g></g><g fill="#ffffff" fill-opacity="1"><g transform="translate(95.269575, 27.156082)"><g><path d="M 1.734375 0.03125 C 1.441406 0.03125 1.175781 -0.03125 0.9375 -0.15625 C 0.707031 -0.28125 0.523438 -0.453125 0.390625 -0.671875 C 0.265625 -0.898438 0.203125 -1.15625 0.203125 -1.4375 C 0.203125 -1.71875 0.265625 -1.96875 0.390625 -2.1875 C 0.523438 -2.414062 0.707031 -2.59375 0.9375 -2.71875 C 1.175781 -2.84375 1.441406 -2.90625 1.734375 -2.90625 C 2.015625 -2.90625 2.269531 -2.84375 2.5 -2.71875 C 2.738281 -2.59375 2.921875 -2.414062 3.046875 -2.1875 C 3.179688 -1.96875 3.25 -1.71875 3.25 -1.4375 C 3.25 -1.15625 3.179688 -0.898438 3.046875 -0.671875 C 2.921875 -0.453125 2.738281 -0.28125 2.5 -0.15625 C 2.269531 -0.03125 2.015625 0.03125 1.734375 0.03125 Z M 1.734375 -0.328125 C 1.941406 -0.328125 2.128906 -0.375 2.296875 -0.46875 C 2.460938 -0.570312 2.59375 -0.707031 2.6875 -0.875 C 2.789062 -1.039062 2.84375 -1.226562 2.84375 -1.4375 C 2.84375 -1.644531 2.789062 -1.832031 2.6875 -2 C 2.59375 -2.164062 2.460938 -2.296875 2.296875 -2.390625 C 2.128906 -2.492188 1.941406 -2.546875 1.734375 -2.546875 C 1.515625 -2.546875 1.320312 -2.492188 1.15625 -2.390625 C 0.988281 -2.296875 0.851562 -2.164062 0.75 -2 C 0.65625 -1.832031 0.609375 -1.644531 0.609375 -1.4375 C 0.609375 -1.226562 0.65625 -1.039062 0.75 -0.875 C 0.851562 -0.707031 0.988281 -0.570312 1.15625 -0.46875 C 1.320312 -0.375 1.515625 -0.328125 1.734375 -0.328125 Z M 1.734375 -0.328125 "/></g></g></g><g fill="#ffffff" fill-opacity="1"><g transform="translate(98.720492, 27.156082)"><g><path d="M 1.546875 -2.875 C 1.921875 -2.875 2.210938 -2.785156 2.421875 -2.609375 C 2.640625 -2.429688 2.75 -2.1875 2.75 -1.875 C 2.75 -1.5625 2.640625 -1.316406 2.421875 -1.140625 C 2.210938 -0.960938 1.921875 -0.875 1.546875 -0.875 L 0.84375 -0.875 L 0.84375 0 L 0.4375 0 L 0.4375 -2.875 Z M 1.546875 -1.234375 C 1.804688 -1.234375 2.003906 -1.285156 2.140625 -1.390625 C 2.273438 -1.503906 2.34375 -1.664062 2.34375 -1.875 C 2.34375 -2.082031 2.273438 -2.238281 2.140625 -2.34375 C 2.003906 -2.457031 1.804688 -2.515625 1.546875 -2.515625 L 0.84375 -2.515625 L 0.84375 -1.234375 Z M 1.546875 -1.234375 "/></g></g></g><g fill="#ffffff" fill-opacity="1"><g transform="translate(101.686637, 27.156082)"><g><path d="M 2.515625 -0.359375 L 2.515625 0 L 0.4375 0 L 0.4375 -2.875 L 2.46875 -2.875 L 2.46875 -2.515625 L 0.84375 -2.515625 L 0.84375 -1.640625 L 2.28125 -1.640625 L 2.28125 -1.28125 L 0.84375 -1.28125 L 0.84375 -0.359375 Z M 2.515625 -0.359375 "/></g></g></g><g fill="#ffffff" fill-opacity="1"><g transform="translate(104.439152, 27.156082)"><g><path d="M 2.359375 0 L 1.734375 -0.890625 C 1.660156 -0.878906 1.597656 -0.875 1.546875 -0.875 L 0.84375 -0.875 L 0.84375 0 L 0.4375 0 L 0.4375 -2.875 L 1.546875 -2.875 C 1.921875 -2.875 2.210938 -2.785156 2.421875 -2.609375 C 2.640625 -2.429688 2.75 -2.1875 2.75 -1.875 C 2.75 -1.65625 2.691406 -1.46875 2.578125 -1.3125 C 2.472656 -1.15625 2.320312 -1.039062 2.125 -0.96875 L 2.796875 0 Z M 1.546875 -1.21875 C 1.804688 -1.21875 2.003906 -1.273438 2.140625 -1.390625 C 2.273438 -1.503906 2.34375 -1.664062 2.34375 -1.875 C 2.34375 -2.082031 2.273438 -2.238281 2.140625 -2.34375 C 2.003906 -2.457031 1.804688 -2.515625 1.546875 -2.515625 L 0.84375 -2.515625 L 0.84375 -1.21875 Z M 1.546875 -1.21875 "/></g></g></g></svg>